<svg id="Capa_1" data-name="Capa 1" xmlns="http://www.w3.org/2000/svg" viewBox="0 0 26.25 31.28"><defs><style>.cls-1{fill:#1395bc;}.cls-2{fill:#ef889b;}.cls-3{fill:#834314;}.cls-4{fill:#d1a871;}</style></defs><path class="cls-1" d="M15.33,20.94" transform="translate(-2.66 -0.26)"/><path class="cls-2" d="M17.31,1.84A2.28,2.28,0,0,0,17,4.07a4.59,4.59,0,0,0,1.52,1.74,8.85,8.85,0,0,0,1,.69c.34.22.7.43,1.06.63.72.41,1.47.78,2.21,1.22a13,13,0,0,1-2.44-.74A9.82,9.82,0,0,1,18.1,6.36a4.27,4.27,0,0,1-1.6-2.12A2.2,2.2,0,0,1,17.31,1.84Z" transform="translate(-2.66 -0.26)"/><path class="cls-3" d="M20.76,1.34A7.76,7.76,0,0,0,19.23,2a1,1,0,0,0-.48.52c0,.17.14.4.33.48,1,.48,2.08.74,3.12,1.2a6.31,6.31,0,0,1,2.74,2.05,3.94,3.94,0,0,1,.51,3.31,4.22,4.22,0,0,0-.78-3.11A6.47,6.47,0,0,0,22,4.61c-1-.44-2.09-.74-3.12-1.28A1,1,0,0,1,18.54,3a.7.7,0,0,1-.09-.53,1.24,1.24,0,0,1,.67-.65A5.66,5.66,0,0,1,20.76,1.34Z" transform="translate(-2.66 -0.26)"/><path class="cls-4" d="M10.77,7.64A5,5,0,0,0,8.63,10a2.42,2.42,0,0,0,1.08,2.64,12.45,12.45,0,0,0,1.35.87,8.48,8.48,0,0,0,1.42.7,12.43,12.43,0,0,0,3.18.51,29.7,29.7,0,0,0,3.27,0,18.64,18.64,0,0,1,3.34,0,8.35,8.35,0,0,1,5.88,2.89A6.74,6.74,0,0,0,25.4,15.9a10.77,10.77,0,0,0-3.17-.64,24,24,0,0,0-3.27.09,31.17,31.17,0,0,1-3.35,0,13.26,13.26,0,0,1-3.33-.6A8.71,8.71,0,0,1,10.76,14a8.94,8.94,0,0,1-1.39-1l-.6-.64a5.24,5.24,0,0,1-.45-.76,2.29,2.29,0,0,1,0-1.76,3.54,3.54,0,0,1,1-1.33A6,6,0,0,1,10.77,7.64Z" transform="translate(-2.66 -0.26)"/><path class="cls-2" d="M9.63,6.87a10.78,10.78,0,0,0-1.55.93A3.38,3.38,0,0,0,7,9.06a2.05,2.05,0,0,0,0,1.58,4.72,4.72,0,0,0,.35.81c.14.26.31.51.46.79-.24-.19-.46-.41-.69-.63a4.86,4.86,0,0,1-.52-.81,2.25,2.25,0,0,1-.08-2A3.14,3.14,0,0,1,7.85,7.44,4.59,4.59,0,0,1,9.63,6.87Z" transform="translate(-2.66 -0.26)"/><path class="cls-2" d="M4,10.89a3.76,3.76,0,0,0-.53,3.93,6.37,6.37,0,0,0,3.34,2.34,15.77,15.77,0,0,0,2.05.65c.34.08.7.2,1,.25l1.07.13a39.2,39.2,0,0,0,4.35.14,19,19,0,0,1-4.39.39,8.27,8.27,0,0,1-1.11-.07c-.4,0-.73-.16-1.1-.23a15.87,15.87,0,0,1-2.14-.62,7.89,7.89,0,0,1-1-.46,6.15,6.15,0,0,1-1-.58A4.38,4.38,0,0,1,3,15.07a3.25,3.25,0,0,1-.16-2.29A4.49,4.49,0,0,1,4,10.89Z" transform="translate(-2.66 -0.26)"/><path class="cls-2" d="M11.48,7.64a2.5,2.5,0,0,0,.69,2.57,6,6,0,0,0,2.39,1.4,22.7,22.7,0,0,0,5.56,1.07c.95.09,1.89.12,2.85.18a9.89,9.89,0,0,1,2.85.57,6.16,6.16,0,0,1,2.5,1.47,2.19,2.19,0,0,1,.59,1.34,2.69,2.69,0,0,1-.39,1.38,2.76,2.76,0,0,0,.27-1.37,2,2,0,0,0-.63-1.2,6,6,0,0,0-2.45-1.29c-1.79-.61-3.71-.47-5.63-.63a21.82,21.82,0,0,1-5.64-1.19A6.2,6.2,0,0,1,12,10.36,2.57,2.57,0,0,1,11.48,7.64Z" transform="translate(-2.66 -0.26)"/><path class="cls-4" d="M19.75,9.24A8.65,8.65,0,0,1,15.57,8a3.9,3.9,0,0,1-1.51-1.72,3.75,3.75,0,0,1-.19-2.31L14,3.38l.22-.52.23-.52a2.52,2.52,0,0,1,.32-.5A3.91,3.91,0,0,1,16.64.49,4.62,4.62,0,0,1,18.88.33a7,7,0,0,1,2.06.75A5.94,5.94,0,0,0,16.83,1a3.7,3.7,0,0,0-1.54,1.23,2,2,0,0,0-.25.41l-.2.48-.19.48-.11.49A3.07,3.07,0,0,0,14.64,6a3.76,3.76,0,0,0,1.24,1.54,7.11,7.11,0,0,0,1.83,1A12.85,12.85,0,0,0,19.75,9.24Z" transform="translate(-2.66 -0.26)"/><path class="cls-3" d="M15.78.46a10.39,10.39,0,0,0-2.54,1.6,4.12,4.12,0,0,0-1.5,2.4,4.68,4.68,0,0,0,.61,2.79,5.24,5.24,0,0,0,2,2.2,4.53,4.53,0,0,1-2.26-2,4.81,4.81,0,0,1-.74-3A4.28,4.28,0,0,1,13,1.79,7.93,7.93,0,0,1,15.78.46Z" transform="translate(-2.66 -0.26)"/><path class="cls-3" d="M18.59,10.38a10.29,10.29,0,0,1,2.53-.55,9.46,9.46,0,0,1,2.6.11,6.62,6.62,0,0,1,2.41,1,5.29,5.29,0,0,1,1.6,2A6.34,6.34,0,0,0,26,11.19a6.75,6.75,0,0,0-2.32-.92,10.71,10.71,0,0,0-2.53-.18A15.56,15.56,0,0,0,18.59,10.38Z" transform="translate(-2.66 -0.26)"/><path class="cls-3" d="M5.46,9.56A4.34,4.34,0,0,0,4.81,12,3.07,3.07,0,0,0,6,14.16a10.66,10.66,0,0,0,4.79,1.71c1.7.29,3.48.38,5.19.8a11.71,11.71,0,0,1,1.28.38c.39.18.89.32,1.09.85a.71.71,0,0,1-.31.65,2.65,2.65,0,0,1-.57.35,6.22,6.22,0,0,1-1.25.45,9.89,9.89,0,0,0,1.19-.55,2.19,2.19,0,0,0,.51-.38c.15-.14.27-.32.21-.47-.12-.32-.59-.5-1-.63A9.13,9.13,0,0,0,15.88,17c-1.71-.35-3.44-.44-5.19-.69a10.49,10.49,0,0,1-4.94-1.9A3.34,3.34,0,0,1,4.59,12,4.19,4.19,0,0,1,5.46,9.56Z" transform="translate(-2.66 -0.26)"/><path class="cls-4" d="M19.12,17a6.09,6.09,0,0,0,1.83.66,8.37,8.37,0,0,0,1.93.14,10.53,10.53,0,0,0,1.93-.26c.64-.14,1.26-.35,1.9-.54l-.89.45c-.31.11-.62.24-.94.34a8.84,8.84,0,0,1-2,.35A5.59,5.59,0,0,1,19.12,17Z" transform="translate(-2.66 -0.26)"/><path class="cls-2" d="M17.31,1.84A2.28,2.28,0,0,0,17,4.07a4.59,4.59,0,0,0,1.52,1.74,8.85,8.85,0,0,0,1,.69c.34.22.7.43,1.06.63.72.41,1.47.78,2.21,1.22a13,13,0,0,1-2.44-.74A9.82,9.82,0,0,1,18.1,6.36a4.27,4.27,0,0,1-1.6-2.12A2.2,2.2,0,0,1,17.31,1.84Z" transform="translate(-2.66 -0.26)"/><path class="cls-3" d="M20.76,1.34A7.76,7.76,0,0,0,19.23,2a1,1,0,0,0-.48.52c0,.17.14.4.33.48,1,.48,2.08.74,3.12,1.2a6.31,6.31,0,0,1,2.74,2.05,3.94,3.94,0,0,1,.51,3.31,4.22,4.22,0,0,0-.78-3.11A6.47,6.47,0,0,0,22,4.61c-1-.44-2.09-.74-3.12-1.28A1,1,0,0,1,18.54,3a.7.7,0,0,1-.09-.53,1.24,1.24,0,0,1,.67-.65A5.66,5.66,0,0,1,20.76,1.34Z" transform="translate(-2.66 -0.26)"/><path class="cls-4" d="M10.77,7.64A5,5,0,0,0,8.63,10a2.42,2.42,0,0,0,1.08,2.64,12.45,12.45,0,0,0,1.35.87,8.48,8.48,0,0,0,1.42.7,12.43,12.43,0,0,0,3.18.51,29.7,29.7,0,0,0,3.27,0,18.64,18.64,0,0,1,3.34,0,8.35,8.35,0,0,1,5.88,2.89A6.74,6.74,0,0,0,25.4,15.9a10.77,10.77,0,0,0-3.17-.64,24,24,0,0,0-3.27.09,31.17,31.17,0,0,1-3.35,0,13.26,13.26,0,0,1-3.33-.6A8.71,8.71,0,0,1,10.76,14a8.94,8.94,0,0,1-1.39-1l-.6-.64a5.24,5.24,0,0,1-.45-.76,2.29,2.29,0,0,1,0-1.76,3.54,3.54,0,0,1,1-1.33A6,6,0,0,1,10.77,7.64Z" transform="translate(-2.66 -0.26)"/><path class="cls-2" d="M9.63,6.87a10.78,10.78,0,0,0-1.55.93A3.38,3.38,0,0,0,7,9.06a2.05,2.05,0,0,0,0,1.58,4.72,4.72,0,0,0,.35.81c.14.26.31.51.46.79-.24-.19-.46-.41-.69-.63a4.86,4.86,0,0,1-.52-.81,2.25,2.25,0,0,1-.08-2A3.14,3.14,0,0,1,7.85,7.44,4.59,4.59,0,0,1,9.63,6.87Z" transform="translate(-2.66 -0.26)"/><path class="cls-2" d="M11.48,7.64a2.5,2.5,0,0,0,.69,2.57,6,6,0,0,0,2.39,1.4,22.7,22.7,0,0,0,5.56,1.07c.95.09,1.89.12,2.85.18a9.89,9.89,0,0,1,2.85.57,6.16,6.16,0,0,1,2.5,1.47,2.19,2.19,0,0,1,.59,1.34,2.69,2.69,0,0,1-.39,1.38,2.76,2.76,0,0,0,.27-1.37,2,2,0,0,0-.63-1.2,6,6,0,0,0-2.45-1.29c-1.79-.61-3.71-.47-5.63-.63a21.82,21.82,0,0,1-5.64-1.19A6.2,6.2,0,0,1,12,10.36,2.57,2.57,0,0,1,11.48,7.64Z" transform="translate(-2.66 -0.26)"/><path class="cls-4" d="M19.75,9.24A8.65,8.65,0,0,1,15.57,8a3.9,3.9,0,0,1-1.51-1.72,3.75,3.75,0,0,1-.19-2.31L14,3.38l.22-.52.23-.52a2.52,2.52,0,0,1,.32-.5A3.91,3.91,0,0,1,16.64.49,4.62,4.62,0,0,1,18.88.33a7,7,0,0,1,2.06.75A5.94,5.94,0,0,0,16.83,1a3.7,3.7,0,0,0-1.54,1.23,2,2,0,0,0-.25.41l-.2.48-.19.48-.11.49A3.07,3.07,0,0,0,14.64,6a3.76,3.76,0,0,0,1.24,1.54,7.11,7.11,0,0,0,1.83,1A12.85,12.85,0,0,0,19.75,9.24Z" transform="translate(-2.66 -0.26)"/><path class="cls-3" d="M15.78.46a10.39,10.39,0,0,0-2.54,1.6,4.12,4.12,0,0,0-1.5,2.4,4.68,4.68,0,0,0,.61,2.79,5.24,5.24,0,0,0,2,2.2,4.53,4.53,0,0,1-2.26-2,4.81,4.81,0,0,1-.74-3A4.28,4.28,0,0,1,13,1.79,7.93,7.93,0,0,1,15.78.46Z" transform="translate(-2.66 -0.26)"/><path class="cls-3" d="M18.59,10.38a10.29,10.29,0,0,1,2.53-.55,9.46,9.46,0,0,1,2.6.11,6.62,6.62,0,0,1,2.41,1,5.29,5.29,0,0,1,1.6,2A6.34,6.34,0,0,0,26,11.19a6.75,6.75,0,0,0-2.32-.92,10.71,10.71,0,0,0-2.53-.18A15.56,15.56,0,0,0,18.59,10.38Z" transform="translate(-2.66 -0.26)"/><path class="cls-4" d="M19.12,17a6.09,6.09,0,0,0,1.83.66,8.37,8.37,0,0,0,1.93.14,10.53,10.53,0,0,0,1.93-.26c.64-.14,1.26-.35,1.9-.54l-.89.45c-.31.11-.62.24-.94.34a8.84,8.84,0,0,1-2,.35A5.59,5.59,0,0,1,19.12,17Z" transform="translate(-2.66 -0.26)"/><path class="cls-2" d="M4,10.89a3.72,3.72,0,0,0-.53,3.93,6.37,6.37,0,0,0,3.34,2.34,16.13,16.13,0,0,0,2,.65c.35.08.71.2,1,.25l1.06.13a39.35,39.35,0,0,0,4.35.14,18.85,18.85,0,0,1-4.38.39,8.53,8.53,0,0,1-1.12-.07c-.39,0-.73-.16-1.09-.23a16.44,16.44,0,0,1-2.15-.62,8.41,8.41,0,0,1-1-.46,5.38,5.38,0,0,1-1-.58A4.38,4.38,0,0,1,3,15.07a3.19,3.19,0,0,1-.17-2.29A4.61,4.61,0,0,1,4,10.89Z" transform="translate(-2.66 -0.26)"/><path class="cls-3" d="M5.43,9.56A4.25,4.25,0,0,0,4.79,12,3.07,3.07,0,0,0,6,14.16a10.62,10.62,0,0,0,4.78,1.71c1.7.29,3.48.38,5.2.8a12.24,12.24,0,0,1,1.27.38c.39.18.89.32,1.09.85a.67.67,0,0,1-.31.65,2.24,2.24,0,0,1-.57.35,6.36,6.36,0,0,1-1.24.45,9.89,9.89,0,0,0,1.19-.55,2.71,2.71,0,0,0,.51-.38c.15-.14.26-.32.21-.47-.13-.32-.59-.5-1-.63A8.78,8.78,0,0,0,15.85,17c-1.7-.35-3.43-.44-5.19-.69a10.53,10.53,0,0,1-4.94-1.9A3.33,3.33,0,0,1,4.57,12,4.24,4.24,0,0,1,5.43,9.56Z" transform="translate(-2.66 -0.26)"/><path class="cls-3" d="M16.11,20.94C9.8,20.94,4.6,20,3.93,18.88l3,10.67h0c0,1.1,4.11,2,9.18,2s9.16-.89,9.17-2h0l3-10.67C27.61,20,22.42,20.94,16.11,20.94Zm-4.4,9.72h0a.34.34,0,0,1-.39-.25L9.45,22a.33.33,0,0,1,.25-.38h0a.32.32,0,0,1,.39.25L12,30.27A.34.34,0,0,1,11.71,30.66Zm4.94-.12a.33.33,0,0,1-.33.33h0a.32.32,0,0,1-.32-.33V21.89a.32.32,0,0,1,.32-.33h0a.33.33,0,0,1,.33.33ZM23.25,22,21.4,30.42a.33.33,0,0,1-.38.25h0a.32.32,0,0,1-.25-.39l1.85-8.45a.31.31,0,0,1,.38-.25h0A.32.32,0,0,1,23.25,22Z" transform="translate(-2.66 -0.26)"/><polygon class="cls-1" points="23.68 12.5 23.07 11.28 21.73 11.09 22.7 10.14 22.46 8.8 23.67 9.43 24.87 8.79 24.64 10.13 25.62 11.08 24.28 11.28 23.68 12.5"/><polygon class="cls-2" points="23.58 9.83 22.64 9.34 21.7 9.83 21.88 8.78 21.12 8.04 22.17 7.89 22.64 6.94 23.11 7.89 24.16 8.04 23.4 8.78 23.58 9.83"/></svg>